<?xml version="1.0" encoding="UTF-8"?>
<svg width="127px" height="21px" viewBox="0 0 127 21" version="1.1" xmlns="http://www.w3.org/2000/svg" xmlns:xlink="http://www.w3.org/1999/xlink">
    <!-- Generator: Sketch 44.1 (41455) - http://www.bohemiancoding.com/sketch -->
    <title>logo</title>
    <desc>Created with Sketch.</desc>
    <defs></defs>
    <g id="网站" stroke="none" stroke-width="1" fill="none" fill-rule="evenodd">
        <g id="03-技术服务" transform="translate(-372.000000, -40.000000)">
            <g id="Group-13" transform="translate(372.000000, 30.000000)">
                <g id="logo(1)" transform="translate(0.000000, 10.000000)">
                    <g id="logo-copy">
                        <g id="logo">
                            <path d="M23.1507352,17.8099917 C20.5158091,17.8099917 18.3778001,15.6717041 18.3778001,13.0328988 C18.3778001,10.3956775 20.5158091,8.25897381 23.1507352,8.25897381 C25.7856613,8.25897381 27.9220878,10.3956775 27.9220878,13.0328988 C27.9220878,15.6717041 25.7856613,17.8099917 23.1507352,17.8099917 Z M23.1507352,5.06896552 C18.7560267,5.06896552 15.1921507,8.63436208 15.1921507,13.0328988 C15.1921507,17.4330195 18.7560267,21 23.1507352,21 C27.5454437,21 31.1077372,17.4330195 31.1077372,13.0328988 C31.1077372,8.63436208 27.5454437,5.06896552 23.1507352,5.06896552 Z" id="Fill-1" fill="#595757"></path>
                            <path d="M32.589836,5.34809646 C32.9544572,5.13308486 32.9544572,5.18801483 33.1530456,5.13622371 C34.4764253,4.79094959 35.2431065,5.85502165 35.4677392,6.50947304 L39.1432513,17.3055669 L39.2067345,17.3055669 L42.8627133,6.20657348 C43.0792072,5.54427494 43.7189221,5.09227973 44.4400257,5.09227973 L44.6402418,5.09227973 C45.7861942,5.09227973 46.5886864,6.18774034 46.2012764,7.22670155 L41.4839894,19.9390668 C41.2463345,20.5746851 40.6245251,21 39.9229548,21 L38.1665874,21 C37.4699004,21 36.8464632,20.5793933 36.6088083,19.9484834 L32.0266265,7.7995427 C31.6343331,6.75744264 31.8378047,5.78910568 32.589836,5.34809646" id="Fill-3" fill="#FF9500"></path>
                            <path d="M104.065525,1.44827586 L105.754233,1.44827586 C106.095295,1.44827586 106.369955,1.73465056 106.369955,2.08675061 L106.369955,4.49355001 C106.369955,4.84721494 106.646125,5.13202475 106.987187,5.13202475 L108.624585,5.13202475 C108.964138,5.13202475 109.238798,5.41683456 109.238798,5.77049949 L109.238798,6.95042586 C109.238798,7.30096101 108.964138,7.58577083 108.624585,7.58577083 L106.987187,7.58577083 C106.646125,7.58577083 106.369955,7.87214553 106.369955,8.22424557 L106.369955,16.3507145 C106.369955,16.696555 106.383538,16.9970137 106.41372,17.2458311 C106.439375,17.4962134 106.505777,17.7090383 106.608397,17.8811761 C106.709508,18.0533139 106.86193,18.1831997 107.06717,18.2708334 C107.269393,18.3569023 107.551599,18.4148032 107.903224,18.4476659 C108.176375,18.4758339 108.574784,18.4977424 108.577802,18.4977424 C109.102977,18.4852233 109.238798,18.9468655 109.238798,19.3193091 L109.238798,20.2551128 C109.238798,20.5806097 109.01092,20.8560302 108.689477,20.9452289 C108.552147,20.9812213 108.369543,21 108.209576,21 L107.178845,21 C106.3443,21 105.923255,20.9170609 105.414681,20.7543124 C104.904597,20.5899991 104.503171,20.3490061 104.217946,20.0313337 C103.928195,19.7136612 103.733518,19.3161794 103.632407,18.8326286 C103.529786,18.3537726 103.469421,17.8029316 103.451312,17.1894951 L103.451312,2.08675061 C103.451312,1.73465056 103.725972,1.44827586 104.065525,1.44827586" id="Fill-5" fill="#595757"></path>
                            <path d="M1.15833261,0.0911767716 C1.41056315,0.00824954959 1.74472845,-0.0443773413 2.18010728,0.0513079149 C2.71348652,0.170914485 3.43483373,0.778515862 3.43483373,1.9697973 L3.43483373,16.2938802 C3.43483373,17.1375052 4.12404967,17.8216547 4.973922,17.8216547 L12.9280201,17.8216547 C13.7778925,17.8216547 14.468715,18.5058043 14.468715,19.3510241 L14.468715,19.4722254 C14.468715,20.3158504 13.7778925,21 12.9280201,21 L1.53908827,21 C0.689215936,21 0,20.3158504 0,19.4722254 L0,1.82945893 C0,0.985833917 0.61370743,0.271384004 1.15833261,0.0911767716" id="Fill-7" fill="#595757"></path>
                            <path d="M93.4624344,17.9047899 C91.5686414,17.9047899 89.6669967,16.8251756 88.8692796,14.9926723 C88.318101,13.7189168 88.2992573,12.1910415 88.8535765,10.8383668 C89.1111072,10.2038567 89.4126066,9.61354121 89.9229572,9.22368048 C93.8942695,6.19160572 98.2895654,8.98060942 98.4026277,12.7845137 L98.4026277,13.0812498 C98.3241122,15.7597667 96.1445228,17.9047899 93.4624344,17.9047899 M101.273153,11.7632996 C100.955951,9.60880606 99.6117659,7.4969289 97.6567307,6.26421136 C95.1599388,4.6889846 90.2040425,4.40329718 87.7559302,7.05655989 C83.7893288,11.3655469 85.2575681,16.6310344 88.5379443,19.2085347 C89.9025431,20.2802571 91.6440162,20.8705726 93.4624344,20.8705726 C94.9149706,20.8705726 96.2748585,20.4759767 97.4431686,19.7878014 C97.8687225,19.5384169 98.4026277,19.3616379 98.4026277,19.8556719 L98.4026277,20.3528628 C98.4026277,20.7095774 98.6899943,21 99.0480248,21 L100.635608,21 C100.992068,21 101.281005,20.7095774 101.281005,20.3528628 L101.281005,11.8690513 C101.281005,11.8343268 101.277864,11.7996024 101.273153,11.7632996" id="Fill-10" fill="#595757"></path>
                            <path d="M79.0333507,13.7586207 L73.6100169,13.7586207 C72.9090633,13.7586207 72.3435748,13.2729865 72.3435748,12.673175 C72.3435748,12.0733635 72.9090633,11.5862069 73.6100169,11.5862069 L79.0333507,11.5862069 C79.7343044,11.5862069 80.301368,12.0733635 80.301368,12.673175 C80.301368,13.2729865 79.7343044,13.7586207 79.0333507,13.7586207" id="Fill-12" fill="#595757"></path>
                            <path d="M58.4644063,15.7129794 C57.4812756,17.1321437 55.739776,18.0064503 53.8074714,17.7720348 C51.6051293,17.5043576 49.8312899,15.7430733 49.5871243,13.5810651 C49.262109,10.6983876 51.5566196,8.25919899 54.4316301,8.25919899 C56.1262369,8.25919899 57.6171028,9.10816335 58.4902781,10.3958649 C58.9042279,11.0056621 59.6803837,11.276507 60.3837749,11.0230848 C61.3782245,10.6682938 61.7921743,9.49304832 61.2052064,8.63141284 C59.7014046,6.41080083 57.0867297,4.97262986 54.1389546,5.07399874 C50.001074,5.21654872 46.5730526,8.47619175 46.3159509,12.5246114 C46.0232755,17.1543181 49.7682273,21 54.4316301,21 C57.2775347,21 59.7806371,19.5665807 61.2326953,17.3966531 C61.8002592,16.5508565 61.3943944,15.405705 60.4225827,15.0572495 C59.6949366,14.7974917 58.8993769,15.0841756 58.4644063,15.7129794" id="Fill-14" fill="#595757"></path>
                            <path d="M80.1418848,16.4506519 C79.2712393,17.4043302 78.034177,18.0522009 76.607421,18.1625438 C73.9209042,18.3706191 71.4484009,16.5105524 70.9830838,13.9285275 C70.4577782,11.0138976 72.5476515,8.29473223 75.5341113,7.93060052 C78.0471475,7.62321662 80.3656261,9.08604875 81.1762829,11.3181288 C81.3513848,11.8020614 81.8458854,12.1062927 82.3711911,12.0416632 C83.4639565,11.9092517 84.3589216,11.1920226 83.6860765,9.80958318 C82.1490711,6.65377506 78.7167501,4.609278 74.9682728,5.15784005 C70.9960543,5.73792865 67.7858533,9.57155769 68.0144585,13.4682398 C68.2852179,18.124712 72.5363023,21.5090876 77.2154136,20.9368806 C79.3652755,20.6752102 81.2168157,19.6237996 82.4976535,18.119983 C83.1072675,17.4043302 82.7975966,16.321393 81.8929035,16.0250434 C81.275183,15.8248498 80.5747755,15.9761773 80.1418848,16.4506519" id="Fill-16" fill="#595757"></path>
                            <path d="M121.717886,13.7586207 L116.29405,13.7586207 C115.593235,13.7586207 115.026284,13.2729865 115.026284,12.673175 C115.026284,12.0733635 115.593235,11.5862069 116.29405,11.5862069 L121.717886,11.5862069 C122.415551,11.5862069 122.984077,12.0733635 122.984077,12.673175 C122.984077,13.2729865 122.415551,13.7586207 121.717886,13.7586207" id="Fill-18" fill="#595757"></path>
                            <path d="M122.826088,16.4506519 C121.955462,17.4043302 120.718428,18.0522009 119.290083,18.1625438 C116.603627,18.3706191 114.132801,16.5105524 113.667495,13.9285275 C113.14058,11.0138976 115.230406,8.29473223 118.216798,7.93060052 C120.731398,7.62321662 123.049824,9.08604875 123.858842,11.3181288 C124.035561,11.8020614 124.53005,12.1062927 125.053723,12.0416632 C126.148085,11.9092517 127.041408,11.1920226 126.368578,9.80958318 C124.833229,6.65377506 121.399364,4.609278 117.652593,5.15784005 C113.680465,5.73792865 110.467094,9.57155769 110.697315,13.4682398 C110.968069,18.124712 115.220678,21.5090876 119.898062,20.9368806 C122.049496,20.6752102 123.899373,19.6237996 125.181804,18.119983 C125.789782,17.4043302 125.48174,16.321393 124.577067,16.0250434 C123.957739,15.8248498 123.26059,15.9761773 122.826088,16.4506519" id="Fill-20" fill="#595757"></path>
                            <path d="M64.2072767,6.06447246 C63.006004,7.68398197 62.9500586,9.76067358 62.9500586,10.9911908 C62.9500586,11.3305904 62.929856,16.0868341 62.9438424,18.8500738 C62.9469505,19.6404564 63.5903229,20.2758621 64.3828832,20.2758621 L64.4807877,20.2758621 C65.273348,20.2758621 65.9198285,19.6342573 65.9198285,18.8407752 L65.9198285,11.4003301 C65.9198285,11.1570162 65.9307068,10.047381 65.9975305,9.49101362 C66.0441517,9.10977024 66.2570551,8.45266782 66.5787413,7.89630044 C66.9734674,7.21130216 67.8406216,6.35117989 67.9260938,6.28299001 C68.6953434,5.66463184 68.9408817,5.13616032 68.5275071,4.525551 L68.1281189,4.00327855 C67.7629196,3.50115312 67.2547486,3.49960335 66.5989438,3.96143477 C65.8918558,4.45736112 64.9501077,5.06332114 64.2072767,6.06447246" id="Fill-23" fill="#595757"></path>
                            <path d="M69.4498318,5.06983119 C69.4498318,5.86971577 68.8033205,6.51724138 68.0029603,6.51724138 C67.2043287,6.51724138 66.5560888,5.86971577 66.5560888,5.06983119 C66.5560888,4.26821526 67.2043287,3.62068966 68.0029603,3.62068966 C68.8033205,3.62068966 69.4498318,4.26821526 69.4498318,5.06983119" id="Fill-25" fill="#575757"></path>
                        </g>
                    </g>
                </g>
            </g>
        </g>
    </g>
</svg>